HIERARCHY
ROOT Hips
{
  OFFSET 90.7885 88.945 -76.2838
  CHANNELS 6 Xposition Yposition Zposition Zrotation Xrotation Yrotation
  JOINT LeftUpLeg
  {
    OFFSET 8.64259 1.95398 -2.38835
    CHANNELS 3 Zrotation Xrotation Yrotation
    JOINT LeftLeg
    {
      OFFSET 43.7702 0 0
      CHANNELS 3 Zrotation Xrotation Yrotation
      JOINT LeftFoot
      {
        OFFSET 40.6238 0 0
        CHANNELS 3 Zrotation Xrotation Yrotation
        JOINT LeftToeBase
        {
          OFFSET 12.7242 0 0
          CHANNELS 3 Zrotation Xrotation Yrotation
          End Site
          {
            OFFSET 0 0 0
          }
        }
      }
    }
  }
  JOINT RightUpLeg
  {
    OFFSET -8.2249 1.95398 -2.59336
    CHANNELS 3 Zrotation Xrotation Yrotation
    JOINT RightLeg
    {
      OFFSET 43.5653 0 0
      CHANNELS 3 Zrotation Xrotation Yrotation
      JOINT RightFoot
      {
        OFFSET 40.6238 0 0
        CHANNELS 3 Zrotation Xrotation Yrotation
        JOINT RightToeBase
        {
          OFFSET 12.7242 0 0
          CHANNELS 3 Zrotation Xrotation Yrotation
          End Site
          {
            OFFSET 0 0 0
          }
        }
      }
    }
  }
  JOINT Spine
  {
    OFFSET 0.165834 0.87714 6.61349
    CHANNELS 3 Zrotation Xrotation Yrotation
    JOINT Spine1
    {
      OFFSET 7.38963 1.71661e-005 0
      CHANNELS 3 Zrotation Xrotation Yrotation
      JOINT Spine2
      {
        OFFSET 11.9445 1.14441e-005 0
        CHANNELS 3 Zrotation Xrotation Yrotation
        JOINT Spine3
        {
          OFFSET 14.7254 4.19617e-005 0
          CHANNELS 3 Zrotation Xrotation Yrotation
          JOINT Spine4
          {
            OFFSET 10.9679 0 0
            CHANNELS 3 Zrotation Xrotation Yrotation
            JOINT RightShoulder
            {
              OFFSET 2.46616 -1.6653 3.69651
              CHANNELS 3 Zrotation Xrotation Yrotation
              JOINT RightArm
              {
                OFFSET 13.0012 0 0
                CHANNELS 3 Zrotation Xrotation Yrotation
                JOINT RightForeArm
                {
                  OFFSET 28.7848 1.52588e-005 0
                  CHANNELS 3 Zrotation Xrotation Yrotation
                  JOINT RightHand
                  {
                    OFFSET 26.5688 1.52588e-005 0
                    CHANNELS 3 Zrotation Xrotation Yrotation
                    End Site
                    {
                      OFFSET 0 0 0
                    }
                  }
                }
              }
            }
            JOINT LeftShoulder
            {
              OFFSET 2.38034 -1.29275 -3.7523
              CHANNELS 3 Zrotation Xrotation Yrotation
              JOINT LeftArm
              {
                OFFSET 16.3182 6.10352e-005 0
                CHANNELS 3 Zrotation Xrotation Yrotation
                JOINT LeftForeArm
                {
                  OFFSET 27.0901 0 0
                  CHANNELS 3 Zrotation Xrotation Yrotation
                  JOINT LeftHand
                  {
                    OFFSET 24.5451 1.52588e-005 0
                    CHANNELS 3 Zrotation Xrotation Yrotation
                    End Site
                    {
                      OFFSET 0 0 0
                    }
                  }
                }
              }
            }
            JOINT Neck
            {
              OFFSET 5.0226 -0.0266342 0
              CHANNELS 3 Zrotation Xrotation Yrotation
              JOINT Head
              {
                OFFSET 6.69363 2.86102e-005 0
                CHANNELS 3 Zrotation Xrotation Yrotation
                End Site
                {
                  OFFSET 0 0 0
                }
              }
            }
          }
        }
      }
    }
  }
}
MOTION
Frames:	12
Frame Time:	0.0416667
33.3644 66.3515 10.6397 -5.96416 -69.5255 -6.48826 -74.8765 69.4648 36.1059 -100.136 31.3497 -6.75343 89.7946 12.6798 -1.71306 0.0920472 6.70313 -2.04874 91.8696 62.1072 137.531 -101.113 -20.5674 5.17212 100.97 -20.9458 -0.699797 16.1194 -5.79635 12.7814 0.654059 10.3309 -90.7392 6.21621 0.994477 -1.48704 -5.45526 0.928079 -1.52936 -27.9892 1.39539 -1.11946 -7.97651 1.39539 -1.11945 87.097 -21.4811 -116.964 1.59648 -12.8225 -55.1177 10.5596 -43.6835 -4.46349 -27.4444 -5.34425 11.5937 -92.7541 -33.6727 69.5548 3.07401 10.3036 -83.0717 -5.3617 44.5544 -0.0148814 0.580295 0.287089 10.1388 9.45032 0.411463 -2.13132 -9.74504 0.529767 5.09309 
33.8286 61.2895 9.993 -7.53692 -70.744 -7.90439 -56.8063 67.7718 18.3352 -111.452 27.7997 -0.473744 92.3495 13.5347 -3.0632 -0.539142 6.84841 -2.06582 80.3993 62.1396 148.197 -110.489 -20.0948 1.68404 103.42 -22.6811 -1.45679 15.8 -5.71244 12.6122 0.655565 10.6836 -90.7311 5.5107 1.00556 -1.46009 -6.16074 0.940343 -1.50292 -28.6949 1.39786 -1.09041 -8.68227 1.39787 -1.09042 87.3383 -20.7977 -116.847 1.10234 -11.7458 -55.5431 10.5278 -43.7929 -4.37723 -28.3524 -5.62554 12.1421 -93.2476 -34.3592 68.9351 3.9145 9.04342 -82.878 -5.44632 45.4834 -0.0132597 2.95254 0.652414 11.5527 9.20539 0.409972 -1.43126 -9.03997 0.465694 4.05889 
34.391 56.2912 9.54175 -9.95233 -72.7881 -10.629 -45.8229 64.8092 7.61536 -121.099 23.6527 4.25133 94.946 14.4595 -4.02833 -0.68694 6.25918 -1.52695 71.6815 62.0849 156.129 -119.03 -17.793 -1.25442 107.507 -24.4869 -0.513721 14.726 -5.57587 12.3132 0.652826 10.9889 -90.6159 4.89988 1.05132 -1.22454 -6.77127 0.996407 -1.26962 -29.3073 1.37073 -0.851968 -9.29461 1.37072 -0.851982 86.8589 -20.7088 -117.967 1.392 -10.9655 -54.6939 10.0164 -43.13 -4.15763 -29.492 -5.28995 9.60358 -93.2652 -34.1594 68.8277 3.79015 8.66408 -82.0632 -5.09105 45.8459 -0.0113769 1.06408 0.349218 10.2101 8.24502 0.483269 -1.67069 -8.82397 0.585593 4.03968 
35.0076 51.2464 9.24299 -13.4994 -75.176 -14.1952 -38.216 61.6056 0.554926 -129.615 19.9045 7.70326 98.0145 15.3565 -4.8417 0.0118303 4.94285 -0.511581 67.5815 61.6639 159.851 -125.853 -13.8036 -3.21337 116.203 -27.0579 3.44195 12.5503 -5.16359 11.5167 0.70571 11.2725 -90.5934 4.33318 1.16909 -1.17199 -7.33781 1.11637 -1.22231 -29.8751 1.46725 -0.766442 -9.86243 1.46725 -0.76645 86.9184 -20.6733 -117.857 0.877803 -11.1724 -54.527 10.0236 -42.7552 -5.21382 -28.6817 -5.03778 9.08892 -93.5263 -35.8872 69.0199 4.25431 8.63636 -81.9516 -5.45945 45.5032 -0.00941039 2.65784 0.572772 10.6583 7.94021 0.340331 -0.877408 -8.76444 0.337392 3.03059 
35.4564 46.2724 9.05471 -18.907 -77.9129 -19.6585 -31.2033 57.8654 -5.88602 -137.117 15.0841 10.0911 99.2314 15.8917 -4.71937 -3.17761 6.77809 -1.48495 62.9777 61.2716 164.468 -132.122 -8.63821 -4.54853 123.079 -28.3884 6.98406 11.728 -4.61867 10.5933 0.768328 11.5304 -90.5286 3.81752 1.32276 -1.03642 -7.85322 1.27588 -1.09362 -30.3924 1.57308 -0.590907 -10.3798 1.57308 -0.590905 86.7645 -21.3736 -117.76 0.104736 -11.9062 -54.9756 10.5559 -43.7665 -4.41487 -29.0706 -5.41506 10.4592 -93.4686 -35.815 69.092 4.00648 9.39026 -81.6151 -5.77096 46.3116 -0.0078378 3.34697 0.688032 11.1438 7.91662 0.180402 -1.65759 -8.78982 0.315556 3.46946 
35.6237 41.9984 8.67338 -25.8743 -80.8593 -26.5972 -26.3913 55.042 -11.5786 -142.556 9.03451 11.1494 100.927 15.9842 -5.91329 -2.45689 4.61373 0.200346 59.221 60.4314 169.441 -137.631 -1.41737 -5.34924 126.913 -28.559 8.86368 11.3506 -3.76109 9.18996 0.801239 11.7632 -90.5062 3.35194 1.39938 -0.983184 -8.31868 1.35475 -1.04382 -30.8588 1.63015 -0.51708 -10.8462 1.63015 -0.517092 86.7042 -21.1149 -118.054 0.688533 -12.3419 -54.6388 10.3115 -44.3106 -4.94098 -32.5778 -6.38898 11.8551 -93.3687 -35.6818 69.2164 2.28122 10.5739 -81.4252 -5.59862 47.9727 -0.0067009 7.0923 1.2805 12.085 7.53657 0.0234042 -1.89189 -8.56582 0.231656 3.11443 
35.6372 38.5055 8.55056 -36.4074 -84.2229 -37.0075 -23.9185 52.8528 -15.9336 -146.654 4.70374 11.5814 99.3874 15.4675 -4.86234 0.00969315 1.9279 2.14443 57.906 60.3883 172.163 -141.945 5.1776 -5.58068 128.988 -28.1902 9.48144 12.1561 -2.93169 7.80521 0.809597 12.0729 -90.5502 2.73265 1.40119 -1.05655 -8.938 1.35334 -1.1172 -31.4779 1.65393 -0.58652 -11.4653 1.65393 -0.58652 87.1965 -19.8886 -117.732 2.85087 -12.4077 -54.8929 10.619 -45.4267 -4.66647 -33.8078 -7.36924 14.6713 -93.0873 -35.6914 69.71 1.53595 11.847 -81.9273 -5.71804 46.6765 -0.00571081 9.66583 1.93575 14.6714 7.15591 -0.241595 -1.50375 -7.55149 -0.0669863 2.72576 
35.6129 36.5921 8.62054 -62.9741 -86.5648 -63.9648 -23.2925 52.5662 -17.2391 -148.775 2.51019 11.5658 98.3487 15.0999 -4.08484 1.42025 1.16373 2.71519 58.3211 61.962 172.796 -144.759 7.65199 -5.40126 128.845 -28.0982 8.41896 13.1415 -2.595 7.1988 0.863414 12.4341 -90.5616 2.01061 1.50712 -1.06168 -9.65994 1.45894 -1.12699 -32.2009 1.7565 -0.55957 -12.1882 1.75651 -0.559561 88.0212 -19.1933 -116.294 3.60478 -12.9993 -56.0129 11.0361 -40.4315 -3.73426 -34.8591 -7.42986 14.9125 -93.0753 -35.5144 69.6666 1.47991 12.7972 -82.591 -5.70712 45.6902 -0.00546312 8.05562 1.43065 12.1926 7.51028 -0.414787 -0.727856 -5.51531 -0.324965 2.18973 
35.5456 36.31 8.42087 -74.5829 -87.013 -75.7187 -23.7828 52.5223 -17.3236 -148.634 1.87555 11.5324 99.4002 15.8203 -3.22769 -3.94322 5.88254 -0.628273 57.8862 62.5049 173.979 -145.084 8.57283 -5.31019 127.738 -27.6101 7.91456 13.7685 -2.416 6.85782 0.837455 12.6854 -90.4999 1.50716 1.48085 -0.93135 -10.1633 1.43843 -0.995638 -32.7044 1.69228 -0.443145 -12.6918 1.69228 -0.443155 88.4789 -18.5357 -115.644 3.74008 -11.9716 -57.4615 10.5891 -40.6814 -4.00809 -34.9565 -7.44431 14.7801 -92.9648 -35.7505 69.9449 1.11684 12.4933 -83.2577 -5.51261 45.4797 -0.00611246 7.8246 1.5025 13.1095 10.389 -0.431345 -0.848783 -4.79478 -0.281118 2.15084 
35.5895 37.2921 7.75859 -55.6883 -86.1552 -56.6535 -24.0217 51.9721 -17.2211 -147.056 2.49992 11.5095 98.5405 15.6145 -2.94508 -2.29162 5.1737 -0.299536 56.7139 61.3181 175.938 -143.419 7.68238 -5.43394 125.747 -27.6821 6.61158 13.2659 -2.5265 7.07428 0.787401 12.7407 -90.3833 1.39554 1.42572 -0.703489 -10.2749 1.39337 -0.765582 -32.816 1.57121 -0.242393 -12.8034 1.57122 -0.242407 88.3801 -18.7135 -115.764 1.2025 -11.2952 -58.5491 8.66455 -40.138 -5.62174 -36.0419 -7.25941 13.4539 -92.9448 -35.1995 69.7795 0.624708 11.608 -82.8293 -4.96049 44.551 -0.00762407 9.13676 1.86904 14.8903 15.8877 -0.294932 -1.29307 -4.81275 0.0284156 2.0624 
35.6795 38.4234 7.03778 -40.7677 -84.6772 -41.6734 -24.695 50.8923 -16.5438 -145.254 3.09147 11.4894 98.8162 15.97 -2.58301 -3.26 4.07413 0.776942 54.7206 59.7451 177.757 -141.419 6.28254 -5.60595 124.431 -27.482 6.51779 12.3611 -3.08869 8.05793 0.718192 12.7229 -90.3419 1.43044 1.30326 -0.627131 -10.2401 1.27441 -0.683881 -32.7802 1.43148 -0.206388 -12.7676 1.43148 -0.206379 88.033 -18.6762 -116.592 -2.42175 -10.9962 -59.2249 9.02951 -35.8879 -6.57652 -36.0346 -6.73735 12.3044 -93.2713 -35.0868 69.1662 1.99488 10.3871 -82.4826 -4.9282 44.081 -0.0102512 11.4042 2.02848 13.0372 22.6377 0.401689 0.121207 -5.70549 0.302949 1.3148 
35.8058 39.0293 6.65341 -32.8568 -83.3778 -33.9004 -25.3462 49.692 -15.8719 -143.799 1.78604 11.3791 99.5794 15.6731 -4.0373 -6.84175 6.64381 -0.685787 52.6253 58.9757 179.504 -140.5 4.42197 -5.63374 123.511 -27.3878 6.33377 11.6952 -3.14282 8.16957 0.744182 12.6314 -90.3062 1.61336 1.36843 -0.558979 -10.057 1.3425 -0.618682 -32.5979 1.47315 -0.121793 -12.5852 1.47315 -0.121799 87.8811 -19.5819 -116.372 -1.29985 -9.63775 -59.3734 7.52342 -39.1191 -6.36146 -34.9341 -6.63548 12.0972 -93.3987 -34.6844 68.7913 1.18623 9.9213 -82.8204 -8.69437 64.9875 -0.437869 19.2607 7.47097 32.9406 27.3252 0.209262 0.507642 -6.39434 -0.0177909 0.682951 
